{"title":"MRS_DALLOWAY.1997_Title2.avi","uid":10052812,"size":1148681988,"categoryP":"video","categoryS":"movies","magnet":"?xt=urn:btih:c5befa59ca8026bdedd7062f1c0ff19ccb69950d&amp;dn=MRS_DALLOWAY.1997_Title2.avi&amp;tr=udp%3A%2F%2Ftracker.openbittorrent.com%3A80&amp;tr=udp%3A%2F%2Fopen.demonii.com%3A1337&amp;tr=udp%3A%2F%2Ftracker.coppersurfer.tk%3A6969&amp;tr=udp%3A%2F%2Fexodus.desync.com%3A6969","seeders":0,"leechers":1,"uploader":"CATRIX02","files":-1,"time":1398628605,"description":"Mrs Dalloway (1997) \n\n  97 min   -  Drama | Romance  -  \n  \n  In 1923 London, socialite Clarissa Dalloway's well-planned party is overshadowed by the return of an old suitor she had known 33 years earlier.\n\n\nDirector: Marleen Gorris \n\nWriters: Eileen Atkins (screenplay), Virginia Woolf (novel) \n\nStars: Vanessa Redgrave, Natascha McElhone, Michael Kitchen |  \n\n &lt;a href=&quot;\nhttp://www.image-share.com/ijpg-2530-291.html&quot; rel=&quot;nofollow&quot; target=&quot;_NEW&quot;&gt;\nhttp://www.image-share.com/ijpg-2530-291.html&lt;/a&gt; &lt;a href=&quot;\nhttp://www.image-share.com/ijpg-2530-292.html&quot; rel=&quot;nofollow&quot; target=&quot;_NEW&quot;&gt;\nhttp://www.image-share.com/ijpg-2530-292.html&lt;/a&gt;\nID                                       : 0\nFormat                                   : MPEG-4 Visual\nFormat profile                           : Simple@L1\nFormat settings, BVOP                    : No\nFormat settings, QPel                    : No\nFormat settings, GMC                     : No warppoints\nFormat settings, Matrix                  : Default (H.263)\nCodec ID                                 : DX50\nCodec ID/Hint                            : DivX 5\nDuration                                 : 1h 33mn\nBit rate                                 : 1 500 Kbps\nWidth                                    : 720 pixels\nHeight                                   : 540 pixels\nDisplay aspect ratio                     : 4:3\nFrame rate                               : 25.000 fps\nColor space                              : YUV\nChroma subsampling                       : 4:2:0\nBit depth                                : 8 bits\nScan type                                : Progressive\nCompression mode                         : Lossy\nBits/(Pixel*Frame)                       : 0.154\nStream size                              : 1 000 MiB (91%)\nWriting library                          : Lavc54.79.100\n\nComplete name                            : MRS_DALLOWAY.1997_.\nFormat                                   : AVI\nFormat/Info                              : Audio Video Interleave\nFormat profile                           : OpenDML\nFile size                                : 1.07 GiB\nDuration                                 : 1h 33mn\nOverall bit rate                         : 1 643 Kbps\nMovie name                               : MRS_DALLOWAY\nGenre                                    : Drama_Romance\nWriting application                      : MEncoder 5.0\nWriting library                          : [= DigiArty videodll! =][= DigiArty videodll!\n\nID                                       : 1\nFormat                                   : MPEG Audio\nFormat version                           : Version 1\nFormat profile                           : Layer 3\nCodec ID                                 : 55\nCodec ID/Hint                            : MP3\nDuration                                 : 1h 33mn\nBit rate mode                            : Constant\nBit rate                                 : 128 Kbps\nChannel(s)                               : 2 channels\nSampling rate                            : 44.1 KHz\nCompression mode                         : Lossy\nStream size                              : 85.3 MiB (8%)\nAlignment                                : Aligned on interleaves\nInterleave, duration                     : 26 ms (0.65 video frame)\nInterleave, preload duration             : 522 ms","torrent":{"xt":"urn:btih:c5befa59ca8026bdedd7062f1c0ff19ccb69950d","amp;dn":"MRS_DALLOWAY.1997_Title2.avi","amp;tr":["udp%3A%2F%2Ftracker.openbittorrent.com%3A80","udp%3A%2F%2Fopen.demonii.com%3A1337","udp%3A%2F%2Ftracker.coppersurfer.tk%3A6969","udp%3A%2F%2Fexodus.desync.com%3A6969"],"infoHash":"c5befa59ca8026bdedd7062f1c0ff19ccb69950d","infoHashBuffer":{"type":"Buffer","data":[197,190,250,89,202,128,38,189,237,215,6,47,28,15,241,156,203,105,149,13]},"announce":[],"urlList":[]}}